<?xml version="1.0" encoding="utf-8"?>
<svg version="1.1" id="Layer_1" xmlns="http://www.w3.org/2000/svg" xmlns:xlink="http://www.w3.org/1999/xlink" x="0px" y="0px"
	 viewBox="0 0 235 152" style="enable-background:new 0 0 235 152;" xml:space="preserve">
<style type="text/css">
	.st0{fill:#31787D;}
	.st1{fill:#FFFFFF;fill-opacity:0.8;}
	.st2{fill:#FFFFFF;}
</style>
<g id="Bag">
	<path class="st0" d="M18.8,24.3h49.4V7.6C68.2,3.4,71.6,0,75.8,0h42c4.2,0,7.6,3.4,7.6,7.6v16.7h49.4c10.4,0,18.8,8.4,18.8,18.8v78.2
		c0,10.4-8.4,18.8-18.8,18.8H18.8C8.4,140.1,0,131.7,0,121.3V43.1C0,32.7,8.4,24.3,18.8,24.3z M75.8,7.6v16.7h42V7.6H75.8z"/>
	<path class="st1" d="M193.6,57.6c-33.6,35.7-68.2,58.6-96.8,58.6S33.6,93.3,0,57.6V74.3c33.6,35.7,68.2,58.6,96.8,58.6
		s63.2-22.9,96.8-58.6V57.6z"/>
	<rect x="85.4" y="103.2" class="st2" width="22.8" height="25.8" rx="4"/>
</g>
<g id="Hat">
	<path class="st0" d="M234.1,113.8l-59.7-23.1c-3.3-1.3-7.1-1.3-10.4,0l-59.7,23.1c-2.9,1.1-2.9,5.3,0,6.4l59.7,23.1
		c3.3,1.3,7.1,1.3,10.4,0l59.7-23.1C237,119.1,237,114.9,234.1,113.8z"/>
	<path class="st0" d="M125.4,125.6v13.1c0,7.3,19.7,13.2,43.9,13.2s43.9-5.9,43.9-13.2v-13.1l-38.7,15c-3.3,1.3-7.1,1.3-10.4,0
		L125.4,125.6z"/>
	<rect x="221.7" y="122.2" class="st0" width="3" height="23" rx="1.5"/>
	<circle class="st0" cx="223.2" cy="147.2" r="3.5"/>
</g>
</svg>